<?xml version="1.0" encoding="UTF-8" standalone="no"?>
<!-- Created with Inkscape (http://www.inkscape.org/) -->

<svg
   version="1.1"
   id="svg1"
   width="1435.075"
   height="1203.7897"
   viewBox="0 0 1435.075 1203.7897"
   sodipodi:docname="logo.svg"
   inkscape:export-filename="logo.svg"
   inkscape:export-xdpi="96"
   inkscape:export-ydpi="96"
   xmlns:inkscape="http://www.inkscape.org/namespaces/inkscape"
   xmlns:sodipodi="http://sodipodi.sourceforge.net/DTD/sodipodi-0.dtd"
   xmlns="http://www.w3.org/2000/svg"
   xmlns:svg="http://www.w3.org/2000/svg">
  <defs
     id="defs1" />
  <sodipodi:namedview
     id="namedview1"
     pagecolor="#ffffff"
     bordercolor="#000000"
     borderopacity="0.25"
     inkscape:showpageshadow="2"
     inkscape:pageopacity="0.0"
     inkscape:pagecheckerboard="0"
     inkscape:deskcolor="#d1d1d1">
    <inkscape:page
       x="0"
       y="0"
       width="1435.075"
       height="1203.7897"
       id="page2"
       margin="0"
       bleed="0" />
  </sodipodi:namedview>
  <g
     inkscape:groupmode="layer"
     inkscape:label="Image"
     id="g1"
     transform="translate(-304.96251,-381.57202)">
    <path
       id="rect3"
       style="fill:#0d422e;fill-opacity:1;stroke-width:1.05588"
       d="m 401.74767,986.76733 v 217.54497 c 2.1762,-0.8764 4.38154,-1.3074 6.5332,-1.3125 11.98803,-0.029 22.31134,13.1406 16.6543,35.9316 -0.37782,1.5222 -0.45443,3.0984 -0.57227,4.6562 -0.0887,1.4982 -0.16171,2.9983 -0.21875,4.4981 2.61767,-0.6049 5.49986,-1.0171 7.79883,-0.7656 3.22857,0.3532 6.62389,0.6613 9.49805,2.1738 9.02085,4.7472 9.1556,6.7744 13.04882,13.9199 1.39612,4.4713 2.13034,5.9374 2.48438,10.6778 0.54283,7.2682 -0.70354,14.6419 -4.53125,20.9609 -0.64534,1.0653 -1.41496,2.0443 -2.22266,2.9961 1.76561,4.1715 3.64468,8.2959 5.74024,12.3125 2.38176,4.2264 4.82813,8.4101 7.12695,12.6836 3.15018,5.8079 5.75512,11.8686 7.87891,18.1191 1.7511,5.1808 2.50586,10.5956 3.07812,16.0098 0.43288,4.7105 0.61697,9.4376 0.76563,14.164 0.0834,2.7033 0.12379,5.409 0.15039,8.1133 -0.004,2.1262 -0.20197,4.2423 -0.28907,6.3653 -0.0617,1.6563 -0.0837,3.3154 -0.10156,4.9726 -0.0136,1.44 -0.0194,2.8783 -0.0234,4.3184 0.11205,3.1146 -0.38602,6.1816 -1.07031,9.207 -0.78529,3.2988 -2.10817,6.4098 -3.81836,9.332 -0.83995,1.4352 -1.60329,2.3842 -2.57812,3.6817 -0.46705,0.5981 -0.9532,1.1783 -1.45899,1.7422 1.01142,1.6329 1.82439,3.4132 3.01758,5.6797 3.05348,7.5024 3.46761,15.5523 3.41211,23.5429 -0.16628,5.0128 -0.83739,9.9868 -1.54883,14.9453 -0.28774,1.9641 -0.56676,3.9302 -0.71679,5.9102 -6.8e-4,0.3258 -0.18409,2.4907 -0.0664,2.625 h 0.002 0.002 0.002 0.002 0.002 0.002 c 0.26238,1.2023 0.5005,2.4092 0.73633,3.6172 5.93182,30.3864 -15.31136,42.6793 -29.93946,30.289 -1.3373,1.1725 -2.83013,2.1638 -4.22851,3.2657 -4.57709,2.4482 -5.86645,3.5193 -11.04102,4.709 -7.04373,1.6193 -14.5115,1.1306 -21.1582,-1.8379 -0.81377,-0.3634 -1.59145,-0.7962 -2.35156,-1.2618 v 32.8106 h 1241.5583 v -38.7012 c -0.703,0.7281 -1.5326,1.4811 -2.6875,2.4121 -3.6702,2.9586 -7.9378,4.8656 -12.5586,5.7461 -1.3383,0.2549 -2.7081,0.2931 -4.0625,0.4395 -1.2375,0 -2.4763,0.047 -3.7129,0 -6.3455,-0.2415 -12.6177,-1.5886 -18.6973,-3.3477 -2.9668,-1.0006 -4.5981,-1.4585 -7.4375,-2.7793 -1.2579,-0.5851 -2.5265,-1.1698 -3.6973,-1.914 -1.4608,-0.9286 -3.0246,-1.7955 -4.1738,-3.0899 -1.8214,-2.0518 -3.8807,-4.1697 -4.6172,-6.8125 -0.9578,-3.4371 -0.1756,-7.1342 -0.2636,-10.7012 1.2208,-2.1059 2.234,-4.347 3.6621,-6.3183 0.453,-0.6253 1.0323,-1.1434 1.6347,-1.6367 -0.3719,-0.723 -0.7402,-1.4476 -1.0429,-2.2012 -1.9469,-4.8463 -2.353,-10.1717 -1.7012,-15.3125 0.1964,-0.969 0.3386,-1.9519 0.5898,-2.9082 1.0269,-3.9083 3.0504,-7.4236 5.5684,-10.5527 0.5858,-0.6533 1.1494,-1.3287 1.7578,-1.961 2.0872,-2.169 4.5421,-3.9499 6.9356,-5.7597 -0.8611,-2.0913 -1.3404,-4.1844 -1.461,-6.2188 -0.5823,-0.4462 -1.1574,-0.9026 -1.7461,-1.3398 -1.1543,-1.3263 -2.4696,-2.5279 -3.4629,-3.9786 -2.293,-3.3488 -3.2048,-7.3661 -3.2148,-11.3613 0,-1.9142 0.3107,-3.151 0.6582,-4.9805 0.8567,-3.2984 1.9076,-6.5428 3.0703,-9.746 1.2098,-3.3042 2.4223,-6.6043 3.4023,-9.9864 0.9908,-3.0017 1.8743,-6.0376 2.8946,-9.0293 1.0495,-2.883 2.1063,-5.7704 3.457,-8.5293 1.3776,-2.7644 2.8851,-5.4597 4.6426,-8.0039 1.9851,-2.8236 4.0699,-5.58 6.4141,-8.1191 0.01,-0.01 0.01,-0.013 0.016,-0.018 -0.034,-0.7317 -0.044,-1.4642 -0.035,-2.1934 0.1666,-3.1906 0.543,-6.3687 1.3555,-9.4668 0.225,-0.7613 0.416,-1.5343 0.6738,-2.2851 1.1941,-3.4777 3.0909,-6.6436 5.5488,-9.3731 1.055,-1.1508 2.147,-2.2844 3.2403,-3.3867 0.036,-0.03 0.064,-0.053 0.084,-0.07 -0.014,0.015 -0.026,0.031 -0.029,0.043 -2e-4,8e-4 0,0.014 0,0.014 0,10e-5 0.014,0 0.02,0 0.021,-0.01 0.048,-0.052 0.057,-0.062 -0.01,0.038 -0.012,0.074 -0.019,0.1054 0.023,-0.063 0.052,-0.128 0.086,-0.1855 0.2298,-0.6473 0.3359,-1.3376 0.459,-2.0117 0.1408,-1.7251 0.2173,-3.4533 0.3399,-5.1797 0.3112,-3.3746 0.7909,-6.8897 2.5234,-9.8809 0.6676,-1.1525 1.5325,-2.1782 2.2988,-3.2676 0.9932,-0.8651 1.8874,-1.8607 2.9805,-2.5957 2.8049,-1.8859 6.1375,-2.8279 9.4941,-2.8105 0.2506,0 0.4997,-5e-4 0.7461,0.01 V 986.76733 Z m 29.6914,280.21287 v 0 c 10e-4,3e-4 0.003,-3e-4 0.004,0 -10e-4,-9e-4 -0.002,0 -0.004,0 z m 0.004,0 c 0.2342,0.1458 0.47105,0.2893 0.70898,0.4297 0.2698,0.1037 0.52416,0.2592 0.8086,0.3105 8.1e-4,10e-5 0.005,0 0.006,0 h 0.002 0.002 0.002 0.002 0.002 c 0.002,0 0.008,-0.01 0.01,-0.01 0.0285,-0.033 0.0301,-0.129 -0.006,-0.1523 -0.30235,-0.1956 -0.62647,-0.3831 -0.97852,-0.459 -0.18609,-0.04 -0.37155,-0.08 -0.55859,-0.1211 z m -29.69531,30.4863 v 61.166 c 0.95299,-0.4017 1.91833,-0.7661 2.91797,-1.0254 6.57616,-1.7057 13.30711,-0.023 19.37109,2.5176 3.42883,1.8433 4.58621,2.2234 7.59961,4.8984 0.25414,0.2257 0.5035,0.4555 0.74805,0.6895 -0.0762,-1.4096 -0.17054,-2.8197 -0.28907,-4.2266 -0.22904,-2.3352 -0.43489,-4.6947 -1.12304,-6.9492 -1.29687,-4.0129 -3.06534,-7.8373 -5.04493,-11.5586 -2.38583,-4.4634 -5.0116,-8.7875 -7.41992,-13.2383 -3.09214,-6.0064 -5.8978,-12.156 -8.43945,-18.416 -1.42228,-3.5391 -2.81556,-7.0864 -4.13281,-10.664 -0.0289,-0.02 -0.0591,-0.04 -0.0879,-0.061 -1.40855,-0.9918 -2.77659,-2.0368 -4.09961,-3.1328 z m 1241.55864,36.377 c -0.1774,0.01 -0.3548,0.022 -0.5391,0.025 0.1797,0 0.3601,6e-4 0.5391,-0.012 z m -0.094,21.248 c 0.01,0.03 0.015,0.06 0.021,0.09 v -0.09 z m 0.021,0.09 v 0 c 10e-4,0 9e-4,0.011 0,0.016 3e-4,0 0,-0.011 0,-0.016 z m 0,0.016 c -0.01,0.1637 -0.01,0.3262 -0.01,0.4902 0.01,0.038 -7e-4,0.1242 0.01,0.1543 0.046,-0.058 -0.012,-0.1555 0.027,-0.2207 0,0.012 0.012,0.034 0.016,0.055 v -0.2617 c -0.014,-0.073 -0.029,-0.1441 -0.045,-0.2168 z m -16.9961,38.6152 c -0.6176,1.9609 -1.2239,3.9257 -1.8671,5.8789 -0.8496,2.8988 -1.8479,5.7462 -2.877,8.584 0.8099,-1.0719 1.7435,-2.0269 2.8457,-2.8105 1.1176,-0.7946 2.2009,-1.5066 3.252,-2.1387 -0.1482,-1.0583 -0.2926,-1.9179 -0.9121,-5.9375 -0.1884,-1.2226 -0.3354,-2.4152 -0.4415,-3.5762 z m -1193.86129,1.8691 c -0.003,0.035 -0.005,0.066 -0.006,0.094 -0.004,0.1751 -0.002,0.7005 0.004,0.5254 0.007,-0.2065 0.005,-0.4125 0.002,-0.6192 z m 25.3418,45.9961 h -0.004 c -0.0795,0.072 -0.97353,1.6942 -0.98437,1.836 h 0.004 0.002 0.002 0.002 0.002 c 0.0355,-0.023 0.16111,-0.1964 0.41993,-0.6016 -0.005,0.017 -0.0105,0.034 -0.0156,0.051 0.20921,-0.4009 0.39791,-0.82 0.56445,-1.2598 0.006,-0.015 0.009,-0.024 0.01,-0.029 z m -30.25977,38.0743 c 0.0397,0.2977 0.0817,0.5922 0.13086,0.8808 0.0655,0.3849 0.0687,0.8152 0.29297,1.1348 0.0114,0.017 0.0246,0.028 0.0332,0.033 h 0.004 0.002 0.002 0.002 0.002 0.002 0.002 0.002 0.002 0.002 0.002 c 0.0545,-0.072 -0.003,-0.5644 -0.0605,-0.752 -0.15949,-0.5227 -0.29418,-0.9439 -0.41992,-1.2968 z m 1179.02146,19.289 c -0.1757,0.1159 -0.3489,0.2326 -0.5214,0.3535 -0.1748,0.1226 -0.676,0.5212 -0.5,0.4004 0.4382,-0.3008 0.7631,-0.5388 1.0214,-0.7539 z" />
    <path
       style="fill:#0d422e;fill-opacity:1;stroke-width:1.08124"
       id="path3"
       transform="scale(1,-1)"
       sodipodi:type="arc"
       sodipodi:cx="1022.5"
       sodipodi:cy="-1002.4661"
       sodipodi:rx="620.8941"
       sodipodi:ry="620.8941"
       sodipodi:start="5.9678229"
       sodipodi:end="3.4891283"
       sodipodi:arc-type="slice"
       d="M 1612.7741,-1195.0433 A 620.8941,620.8941 0 0 1 1382.2475,-496.41154 620.8941,620.8941 0 0 1 646.66009,-508.24567 620.8941,620.8941 0 0 1 438.72612,-1213.9314 L 1022.5,-1002.4661 Z" />
    <path
       style="fill:#daeacc;fill-opacity:1"
       d="m 1013.6043,1584.7507 c -5.2563,-0.2937 -6.729,-0.7647 -7.9969,-2.5573 -5.3971,-7.6302 -6.35941,-13.8006 -3.477,-22.291 0.8709,-2.565 1.5814,-6.7432 1.5791,-9.285 0,-2.5417 0.5717,-5.2963 1.2756,-6.1213 0.704,-0.825 1.5225,-2.4 1.8189,-3.5 0.2964,-1.1 1.945,-6.05 3.6636,-11 6.1108,-17.6012 6.4984,-19.1871 8.0654,-33 1.361,-11.9978 4.8327,-80.7846 4.9713,-98.5 0.067,-8.525 0.5446,-18.425 1.062,-22 1.8516,-12.7956 1.36,-17.3683 -2.5192,-23.4325 -1.925,-3.0093 -3.5,-6.078 -3.5,-6.8195 0,-0.7414 -0.4013,-1.7755 -0.8917,-2.298 -0.4904,-0.5225 -2.1202,-5 -3.6217,-9.95 -4.5394,-14.9649 -6.4998,-20.6014 -8.6033,-24.7364 -0.4858,-0.9551 -0.8833,-2.1922 -0.8833,-2.7492 0,-2.2121 -12.18871,-25.7019 -14.79591,-28.5144 -7.4749,-8.0634 -19.9251,-13.6402 -35.704,-15.9929 -2.2,-0.3281 -8.05,-1.2774 -13,-2.1096 -4.95,-0.8322 -10.8,-1.694 -13,-1.915 -6.6612,-0.6693 -41.0943,-2.4566 -56,-2.9069 -38.9049,-1.175 -68.1389,-6.0539 -80.5,-13.4345 -4.1896,-2.5015 -12.0385,-10.4616 -13.4506,-13.6411 -4.0615,-9.1452 -4.5027,-21.0475 -1.1382,-30.7083 4.0361,-11.5891 14.6238,-26.2502 29.4581,-40.7917 6.8362,-6.7013 31.7957,-28.5399 40.6203,-35.5413 2.7443,-2.1773 5.8943,-4.7882 7,-5.802 1.1057,-1.0138 8.7604,-7.0717 17.0104,-13.4621 8.25,-6.3904 15.225,-11.886 15.5,-12.2125 0.275,-0.3265 7.025,-5.4994 15,-11.4954 26.1939,-19.6938 26.366,-19.8783 29.3668,-31.4867 0.9241,-3.575 2.1032,-8.075 2.62,-10 0.5169,-1.925 1.6623,-6.65 2.5453,-10.5 1.8411,-8.0272 2.6073,-10.6751 5.4977,-19 1.1457,-3.3 2.7818,-8.25 3.6356,-11 0.8539,-2.75 1.9152,-5.9 2.3586,-7 7.9546,-19.7344 10.3448,-58.3821 4.9785,-80.5001 -0.467,-1.925 -1.8196,-7.55 -3.0058,-12.5 -2.2577,-9.4211 -2.8151,-11.5 -5.4967,-20.5 -1.5536,-5.214 -2.5382,-8.6445 -4.4489,-15.5 -0.9702,-3.4809 -7.616,-22.0515 -8.9467,-25 -0.4964,-1.1 -1.4812,-3.575 -2.1884,-5.5 -1.3133,-3.5745 -5.5066,-12.8514 -12.6565,-28 -3.5551,-7.5322 -6.574,-14.2495 -9.2132,-20.5 -0.4645,-1.1 -1.3927,-3.575 -2.0626,-5.5 -0.67,-1.925 -1.8405,-4.918 -2.601,-6.6511 -0.7605,-1.7331 -1.3827,-3.844 -1.3827,-4.691 0,-0.8469 -0.3981,-1.7859 -0.8847,-2.0866 -0.4866,-0.3007 -1.1246,-1.7898 -1.4177,-3.309 -0.2932,-1.5192 -1.0016,-4.3373 -1.5743,-6.2623 -0.5728,-1.925 -1.7818,-5.975 -2.6867,-9 -0.905,-3.025 -2.0107,-7.3 -2.4571,-9.5 -0.4465,-2.2 -1.5567,-6.7 -2.4673,-10 -0.9106,-3.3 -2.0097,-8.025 -2.4424,-10.5 -0.4328,-2.475 -1.7127,-9 -2.8444,-14.5 -4.469,-21.7208 -6.7448,-43.16436 -5.1758,-48.76926 1.7936,-6.4077 11.702,-16.0083 36.4504,-35.3183 1.65,-1.2874 8.175,-6.20229 14.5,-10.92198 14.5833,-10.88205 24.8501,-18.69368 26.339,-20.04057 1.0974,-0.99268 9.7038,-7.57766 15.6181,-11.94981 13.5931,-10.04867 26.8636,-23.59118 30.56921,-31.19576 3.7496,-7.69469 4.0809,-8.63398 5.9274,-16.80424 0.8701,-3.85 1.9867,-8.575 2.4813,-10.5 0.9871,-3.84192 2.0955,-10.54225 4.6317,-28 0.9188,-6.325 2.2232,-13.975 2.8987,-17 l 1.228,-5.5 5.2344,-0.30507 c 9.2225,-0.53751 10.8662,2.65478 14.0594,27.30507 1.0742,8.29222 2.8238,18.32148 3.9252,22.5 0.5074,1.925 1.4561,5.525 2.1084,8 6.5977,25.03517 10.7756,30.3724 43.4791,55.54441 1.65,1.27001 5.475,4.24309 8.5,6.60685 3.025,2.36375 10.9,8.37553 17.5,13.35949 36.5221,27.57951 42.3475,32.22841 48.8532,38.98651 5.072,5.2688 9.1601,11.2459 11.2301,16.4194 4.8888,12.21816 -4.6566,71.10096 -17.6022,108.58326 -1.1397,3.3 -2.7494,8.025 -3.577,10.5 -0.8277,2.475 -1.9007,5.4 -2.3844,6.5 -0.4838,1.1 -2.1012,4.925 -3.5942,8.5 -3.0049,7.1953 -7.9554,17.3699 -15.813,32.5 -8.1921,15.7742 -20.6125,47.6942 -20.6125,52.9735 0,0.8545 -0.394,2.3351 -0.8756,3.2901 -0.4815,0.9551 -1.6588,4.4364 -2.6161,7.7364 -0.9573,3.3 -2.1104,6.9 -2.5624,8 -0.9348,2.2751 -5.0634,15.006 -6.8102,21 -3.052,10.4728 -3.1243,53.1145 -0.1022,60.2972 0.5316,1.2634 0.9665,3.229 0.9665,4.368 0,1.139 2.178,8.6553 4.8401,16.7029 2.662,8.0476 5.4269,16.657 6.1441,19.132 0.7173,2.475 1.8611,6.3 2.5417,8.5 1.6733,5.4084 8.1276,32.6694 9.3519,39.5 4.0003,22.3168 6.0764,40.4273 6.1024,53.2353 0.02,9.6057 -2.4162,39.9068 -3.5984,44.7647 -0.3346,1.375 -0.9995,5.425 -1.4776,9 -1.0017,7.4912 -2.1836,13.8107 -4.3015,23 -0.824,3.575 -2.1935,9.65 -3.0434,13.5 -0.8499,3.85 -2.2548,9.475 -3.122,12.5 -0.8671,3.025 -1.9833,7.075 -2.4803,9 -2.4893,9.6407 -4.2608,15.6684 -5.0657,17.2364 -0.4902,0.9551 -0.8913,3.066 -0.8913,4.691 0,1.625 -0.45,3.2327 -1,3.5726 -0.55,0.3399 -1,1.4398 -1,2.4442 0,1.0044 -0.71,4.2403 -1.5779,7.191 -1.7675,6.0096 -2.5905,9.235 -4.9411,19.3648 -0.8934,3.85 -2.0006,8.575 -2.4605,10.5 -0.9971,4.1733 -2.8569,14.1953 -4.1755,22.5 -1.23,7.7466 -2.5696,24.4862 -3.7374,46.7023 -0.5119,9.7363 -1.2162,18.1645 -1.5653,18.7293 -0.3492,0.5649 -1.0961,4.5239 -1.6598,8.7977 -1.3952,10.5768 -2.4373,16.5106 -4.3501,24.7707 -0.8915,3.85 -2.0264,8.8 -2.522,11 -2.3601,10.4773 -2.7956,12.3003 -3.9412,16.5 -0.6751,2.475 -1.6364,6.075 -2.136,8 -1.9861,7.6514 -4.1244,14.5876 -5.0054,16.2364 -0.5103,0.9551 -0.9278,2.6214 -0.9278,3.703 0,1.0816 -0.4197,3.0002 -0.9326,4.2635 -0.513,1.2634 -3.2547,9.7221 -6.0927,18.7971 -2.838,9.075 -5.6808,17.582 -6.3174,18.9045 -1.5983,3.3206 -1.4278,20.5198 0.2637,26.5955 0.7656,2.75 2.6716,6.9351 4.2355,9.3001 1.5639,2.3651 2.8435,4.7691 2.8435,5.3423 0,0.5732 0.9,2.1863 2,3.5847 1.1,1.3985 2,3.3268 2,4.2853 0,0.9585 0.6571,2.2881 1.4603,2.9546 1.1101,0.9214 1.3918,3.1747 1.175,9.3984 -0.3259,9.3573 -0.7823,10.4234 -5.7533,13.4394 -3.3865,2.0547 -4.6985,2.1829 -20.5,2.0025 -9.2851,-0.106 -19.7812,-0.3547 -23.3248,-0.5527 z m 7.3808,-366.0592 c 0.315,-0.9926 0.1059,-7.1801 -0.4648,-13.75 -1.3319,-15.3343 -1.6732,-20.8123 -3.128,-50.1954 l -1.2005,-24.25 h -2.8792 c -1.8516,0 -6.6957,2.4453 -13.57231,6.8512 -5.8812,3.7681 -12.9431,8.0909 -15.6931,9.6062 -2.75,1.5153 -7.7101,4.6819 -11.0224,7.0369 -8.915,6.3385 -28.5312,19.5057 -29.0592,19.5057 -0.252,0 -2.2786,1.1492 -4.5035,2.5537 -7.6364,4.8207 -25.9196,14.4463 -27.4397,14.4463 -0.3001,0 -1.7421,0.784 -3.2044,1.7421 l -2.6589,1.7422 3.4441,0.6818 c 1.8942,0.375 5.019,1.1266 6.944,1.6701 3.1174,0.8801 5.1689,1.5653 12.5,4.1748 1.1,0.3915 3.575,1.1731 5.5,1.7369 8.6096,2.5215 21.803,6.4695 25,7.481 1.925,0.609 5.1875,1.4817 7.25,1.9392 2.0625,0.4576 5.6625,1.2834 8,1.8353 10.1077,2.3863 19.7922,4.1867 27.15481,5.0482 4.3477,0.5087 8.1352,1.1552 8.4167,1.4366 0.2814,0.2815 2.6564,0.5118 5.2777,0.5118 3.7157,0 4.8921,-0.3977 5.3387,-1.8046 z M 994.79579,780.746 c 2.8345,-2.9719 6.75131,-11.2591 6.75131,-14.2841 0,-1.0275 0.6765,-4.4657 1.5034,-7.6403 2.3338,-8.96 0.4284,-15.2224 -8.68761,-28.5529 -4.8524,-7.0957 -7.4953,-12.0296 -10.3236,-19.2727 -1.6972,-4.3463 -1.9486,-7.484 -1.9235,-24 0.032,-20.8106 0.3995,-22.72 6.5888,-34.19926 8.4309,-15.6366 20.01171,-22.279 38.84251,-22.279 5.5551,0 11.5412,0.6192 14.4155,1.4912 13.6233,4.1327 24.5425,14.7077 28.8983,27.98706 3.5628,10.8621 4.8599,39.8963 2.2329,49.982 -1.7768,6.8217 -4.2078,11.3437 -12.2907,22.8621 -7.3349,10.4524 -8.6984,14.6178 -7.9074,24.1559 0.7284,8.7837 2.8099,14.5482 8.0343,22.25 2.4656,3.6348 3.3871,4.25 6.366,4.25 4.9584,0 11.9848,-5.502 19.6106,-15.3562 7.0877,-9.1588 20.6405,-28.2338 20.6405,-29.0505 0,-0.2937 1.0846,-2.9098 2.4102,-5.8136 4.2154,-9.234 8.7668,-24.9588 13.1057,-45.2797 0.9394,-4.4 2.0703,-9.125 2.513,-10.5 1.7641,-5.4789 1.8128,-9.8261 0.1436,-12.8146 -0.9199,-1.647 -5.8385,-7.44226 -10.9303,-12.87846 -5.0918,-5.4362 -10.0188,-10.9917 -10.9489,-12.3454 -10.2443,-14.9106 -44.6042,-49.0732 -61.6929,-61.33863 -2.2552,-1.6187 -4.3254,-3.23021 -4.6004,-3.58114 -0.275,-0.35093 -1.8661,-1.59089 -3.5359,-2.75548 -1.6697,-1.16459 -3.6582,-3.28041 -4.4189,-4.70182 -0.7608,-1.42141 -1.6851,-2.58439 -2.0542,-2.58439 -0.369,0 -3.3305,2.5875 -6.581,5.75 -3.2505,3.1625 -10.2652,9.125 -15.5881,13.25 -9.95851,7.71735 -41.24261,38.45986 -50.88071,49.99996 -2.9858,3.575 -5.6803,6.725 -5.9878,7 -0.3075,0.275 -1.8852,2.3 -3.5061,4.5 -2.7561,3.741 -6.1797,7.6407 -14.3019,16.29146 -3.1554,3.3607 -3.3153,3.8693 -2.6926,8.5637 0.3641,2.7449 1.0862,5.7834 1.6047,6.7521 0.5184,0.9687 0.9426,2.7188 0.9426,3.8891 0,1.1703 0.6951,4.4624 1.5448,7.3157 0.8497,2.8534 1.9138,6.5379 2.3648,8.1879 3.4393,12.5828 6.0862,21.6279 7.0232,24 0.4345,1.1 1.3455,3.8 2.0244,6 2.4993,8.0991 7.5881,16.7355 18.0981,30.7152 10.7434,14.2899 17.8204,21.3949 24.7713,24.8691 4.8619,2.4301 5.3552,2.3812 8.422,-0.8343 z m -673.0486,764.5501 c -0.66,-0.66 -1.2,-2.0324 -1.2,-3.0498 0,-2.0543 14.3826,-16.634 20.25,-20.5275 2.0625,-1.3687 3.75,-2.8241 3.75,-3.2343 0,-0.4102 1.4083,-1.3291 3.1295,-2.042 1.7212,-0.713 4.1758,-2.3426 5.4545,-3.6214 1.2788,-1.2787 2.7723,-2.325 3.319,-2.325 0.5467,0 2.2078,-1.125 3.6915,-2.5 1.4836,-1.375 3.3068,-2.5 4.0515,-2.5 0.7447,0 1.354,-0.4011 1.354,-0.8914 0,-0.4903 1.8,-1.6117 4,-2.4919 2.2,-0.8803 4,-2.0541 4,-2.6086 0,-0.5545 0.8776,-1.0081 1.9503,-1.0081 1.0727,0 2.3102,-0.5946 2.75,-1.3214 0.8654,-1.43 9.1817,-5.6786 11.1154,-5.6786 0.6514,0 1.1843,-0.45 1.1843,-1 0,-0.55 0.8734,-1 1.941,-1 1.0675,0 2.2474,-0.4959 2.622,-1.102 0.7264,-1.1753 7.1905,-4.3046 9.0514,-4.3819 0.613,-0.025 1.8308,-0.6407 2.7062,-1.3673 0.8755,-0.7265 2.0086,-1.0634 2.518,-0.7485 0.5095,0.3148 2.0439,-0.3067 3.4099,-1.3812 1.366,-1.0745 2.7549,-1.6824 3.0864,-1.3509 0.3314,0.3315 1.7259,-0.1332 3.0987,-1.0327 1.3728,-0.8995 3.1354,-1.6355 3.9169,-1.6355 0.7815,0 2.6775,-0.652 4.2135,-1.4488 1.5359,-0.7969 3.153,-1.2261 3.5936,-0.9538 0.4406,0.2723 1.8228,-0.063 3.0717,-0.7448 1.2489,-0.682 3.4316,-1.1269 4.8505,-0.9888 1.4189,0.1382 3.1615,-0.4497 3.8724,-1.3063 0.7453,-0.898 2.864,-1.5575 5.0036,-1.5575 2.0409,0 4.0421,-0.3375 4.4471,-0.75 0.4049,-0.4125 2.6174,-1.2273 4.9166,-1.8106 l 4.1805,-1.0607 -0.3093,-6.4393 c -0.1702,-3.5417 -0.7548,-9.0401 -1.2994,-12.2187 -0.5445,-3.1786 -0.9119,-9.9664 -0.8165,-15.0838 0.099,-5.3251 -0.3074,-10.2029 -0.9507,-11.405 -0.6183,-1.1552 -1.1241,-3.4319 -1.1241,-5.0592 0,-1.7075 -0.6344,-3.2021 -1.5,-3.5343 -0.825,-0.3166 -1.5,-1.7148 -1.5,-3.107 0,-1.3923 -0.3954,-2.5314 -0.8787,-2.5314 -0.4833,0 -1.4264,-1.3224 -2.0959,-2.9386 -1.395,-3.3679 -15.6609,-18.0614 -17.5358,-18.0614 -0.6846,0 -1.8219,-0.6955 -2.5274,-1.5455 -0.7055,-0.85 -1.9026,-1.3076 -2.6603,-1.0169 -0.7577,0.2908 -1.6437,-0.1646 -1.9688,-1.0119 -0.3252,-0.8474 -1.1951,-1.3089 -1.9332,-1.0257 -0.7381,0.2833 -1.9979,-0.1409 -2.7996,-0.9425 -0.8016,-0.8016 -1.8271,-1.4559 -2.2789,-1.4539 -1.3632,0.01 -21.7958,-10.3143 -22.1548,-11.1902 -0.1833,-0.4474 -1.1476,-0.8134 -2.143,-0.8134 -0.9953,0 -2.0687,-0.675 -2.3853,-1.5 -0.3165,-0.825 -1.4897,-1.5 -2.6069,-1.5 -1.1173,0 -2.0314,-0.4209 -2.0314,-0.9353 0,-0.5144 -1.575,-1.5048 -3.5,-2.2009 -1.925,-0.696 -3.5,-1.6041 -3.5,-2.0178 0,-0.4137 -1.6163,-1.5192 -3.5919,-2.4566 -1.9755,-0.9374 -3.8236,-2.3086 -4.1069,-3.0469 -0.2834,-0.7384 -1.11,-1.3425 -1.837,-1.3425 -0.727,0 -2.9619,-1.5468 -4.9664,-3.4373 -2.0045,-1.8905 -5.299,-4.6517 -7.3212,-6.1359 -4.6107,-3.3844 -13.4945,-12.5024 -17.3012,-17.7575 -1.5909,-2.1961 -3.7887,-4.6207 -4.884,-5.3878 -1.0953,-0.7672 -1.9914,-1.8903 -1.9914,-2.4958 0,-0.6055 -1.7604,-3.3925 -3.912,-6.1933 -2.1515,-2.8008 -5.0897,-7.6799 -6.5293,-10.8424 -1.4395,-3.1625 -3.0542,-5.75 -3.588,-5.75 -0.5339,0 -0.9707,-0.8309 -0.9707,-1.8464 0,-2.1185 -2.6707,-7.832 -4.0633,-8.6927 -0.5152,-0.3184 -0.9367,-1.6508 -0.9367,-2.9609 0,-1.3101 -0.45,-2.6601 -1,-3 -0.55,-0.3399 -1,-1.6614 -1,-2.9366 0,-1.2752 -0.6852,-2.8871 -1.5226,-3.5821 -0.8803,-0.7306 -1.2733,-2.0491 -0.9316,-3.1256 0.3365,-1.0603 -0.084,-2.537 -0.9775,-3.4302 -0.8626,-0.8626 -1.5683,-2.677 -1.5683,-4.0321 0,-1.3551 -0.6257,-3.4604 -1.3904,-4.6786 -1.4062,-2.2402 -1.6233,-8.2993 -0.3692,-10.3067 0.9071,-1.4519 14.6042,-1.1318 17.4438,0.4077 1.2014,0.6513 3.5797,1.1842 5.2852,1.1842 1.7055,0 4.1903,0.7138 5.5218,1.5862 1.3314,0.8724 2.9104,1.2836 3.5088,0.9138 0.5983,-0.3698 2.1773,0.041 3.5088,0.9138 1.3314,0.8724 3.5616,1.5862 4.956,1.5862 1.3943,0 2.5352,0.45 2.5352,1 0,0.55 1.0984,1 2.441,1 1.3425,0 2.7191,0.45 3.059,1 0.3399,0.55 1.3104,1 2.1567,1 2.0942,0 18.3433,8.1173 18.3433,9.1635 0,0.4601 0.9,0.8365 2,0.8365 1.1,0 2,0.444 2,0.9866 0,0.5426 1.4625,1.5979 3.25,2.3451 1.7875,0.7472 3.8676,2.1032 4.6224,3.0134 0.7549,0.9102 1.9668,1.6549 2.6933,1.6549 0.7265,0 1.9089,0.7954 2.6276,1.7676 0.7187,0.9722 4.2924,4.1198 7.9416,6.9946 3.6493,2.8748 7.9243,6.8741 9.5,8.8872 1.5758,2.0132 4.1049,5.0435 5.6202,6.7339 1.5153,1.6905 3.0081,3.8708 3.3174,4.8452 0.3092,0.9743 0.9331,1.7715 1.3863,1.7715 0.4532,0 1.5501,1.6875 2.4375,3.75 1.5538,3.6116 3.5596,7.2059 4.6037,8.25 0.275,0.275 1.7891,3.2 3.3647,6.5 1.5755,3.3 3.263,6.7814 3.75,7.7364 0.4869,0.9551 0.8853,2.2247 0.8853,2.8215 0,0.5967 0.6791,1.7641 1.5092,2.5941 0.83,0.8301 1.2359,1.9513 0.902,2.4916 -0.3339,0.5403 0.067,1.7416 0.8912,2.6694 2.0447,2.3021 4.8113,9.194 4.1319,10.2932 -0.3038,0.4916 -0.076,0.8938 0.5067,0.8938 0.5824,0 1.059,1.0699 1.059,2.3776 0,1.3076 0.675,2.9377 1.5,3.6224 0.825,0.6847 1.5,2.3469 1.5,3.6939 0,1.3469 0.675,3.124 1.5,3.949 0.825,0.825 1.5,2.3413 1.5,3.3695 0,1.0283 0.45,2.1477 1,2.4876 0.55,0.3399 1,1.6614 1,2.9366 0,1.2752 0.7063,2.9047 1.5695,3.6211 0.8632,0.7164 1.363,2.0925 1.1105,3.0579 -0.2525,0.9654 0.1314,1.9818 0.8529,2.2587 0.7216,0.2769 1.4594,1.5434 1.6395,2.8146 0.2136,1.5066 1.1108,2.4223 2.5776,2.6307 2.1309,0.3026 2.2492,-0.015 2.2352,-6 -0.01,-3.4758 -0.7096,-9.2446 -1.5587,-12.8196 -0.8804,-3.7065 -1.4665,-10.1531 -1.3637,-15 0.1013,-4.7729 -0.5009,-11.5015 -1.3733,-15.3451 -0.8546,-3.7649 -1.3098,-7.481 -1.0115,-8.2581 0.2982,-0.7772 -0.2122,-3.0027 -1.1342,-4.9456 -0.9219,-1.9429 -1.5568,-4.5268 -1.4108,-5.7419 0.1461,-1.2151 -0.2741,-3.1922 -0.9337,-4.3936 -0.6596,-1.2013 -1.2136,-3.2263 -1.2311,-4.5 -0.018,-1.2736 -0.6925,-3.1892 -1.5,-4.2568 -0.8075,-1.0677 -1.4682,-3.2052 -1.4682,-4.75 0,-1.5449 -0.4586,-2.8089 -1.0191,-2.8089 -0.5671,0 -0.7603,-1.0308 -0.4357,-2.3242 0.3703,-1.4753 0.012,-2.7984 -0.9809,-3.6224 -0.8604,-0.7141 -1.5643,-2.0881 -1.5643,-3.0534 0,-0.9653 -0.6701,-2.3112 -1.489,-2.9909 -0.819,-0.6796 -1.2249,-1.6631 -0.9021,-2.1854 0.3229,-0.5224 -0.039,-1.7089 -0.8041,-2.6367 -0.7651,-0.9279 -2.0375,-3.037 -2.8276,-4.687 -0.7901,-1.65 -2.4582,-4.3925 -3.7069,-6.0944 -1.2487,-1.7019 -2.2703,-3.5663 -2.2703,-4.143 0,-0.5767 -0.6738,-1.3072 -1.4973,-1.6232 -0.8234,-0.316 -2.4881,-2.6141 -3.6992,-5.107 -1.2111,-2.4928 -2.4794,-4.5324 -2.8183,-4.5324 -0.339,0 -5.5368,-4.9823 -11.5508,-11.0717 -6.0139,-6.0894 -15.5469,-15.6385 -21.1844,-21.2202 -5.6375,-5.5817 -10.25,-10.7386 -10.25,-11.4597 0,-0.7211 -0.6186,-1.5486 -1.3747,-1.8387 -0.7561,-0.2901 -2.2057,-2.4135 -3.2215,-4.7186 -1.0157,-2.3051 -2.4221,-4.551 -3.1253,-4.9908 -0.7032,-0.4398 -1.2785,-1.6292 -1.2785,-2.643 0,-1.0138 -0.7217,-2.1203 -1.6038,-2.4587 -0.937,-0.3596 -1.3598,-1.2512 -1.0168,-2.1449 0.3322,-0.8658 -0.057,-1.7763 -0.8963,-2.0985 -0.8157,-0.3131 -1.4831,-1.3945 -1.4831,-2.4032 0,-1.0087 -0.45,-2.1121 -1,-2.452 -0.55,-0.3399 -1,-1.4593 -1,-2.4876 0,-1.0282 -0.675,-2.5445 -1.5,-3.3695 -0.825,-0.825 -1.5,-2.1557 -1.5,-2.9572 0,-0.8014 -0.652,-2.7138 -1.4488,-4.2497 -0.7969,-1.5359 -1.2028,-3.1907 -0.9021,-3.6773 0.3007,-0.4866 -0.2256,-1.7382 -1.1697,-2.7814 -1.0639,-1.1756 -1.5037,-2.7674 -1.1567,-4.187 0.3114,-1.2743 -0.08,-3.1514 -0.8815,-4.2314 -0.7927,-1.0677 -1.4412,-3.7902 -1.4412,-6.05 0,-2.2599 -0.4996,-4.6085 -1.1101,-5.219 -0.6106,-0.6106 -1.2412,-4.1881 -1.4014,-7.95 -0.1602,-3.762 -0.7857,-8.1067 -1.3899,-9.655 -0.6043,-1.5483 -1.0986,-8.429 -1.0986,-15.2905 0,-11.2644 0.2124,-12.7627 2.188,-15.4349 2.1783,-2.9462 5.1349,-3.8641 6.312,-1.9595 0.3399,0.55 1.4364,1 2.4365,1 1.0002,0 2.3747,0.67 3.0543,1.489 0.6797,0.8189 1.5223,1.3239 1.8725,1.1221 0.3502,-0.2018 3.3367,1.1419 6.6367,2.9859 3.3,1.844 6.9,3.8208 8,4.3927 1.1,0.572 3.35,1.919 5,2.9933 1.65,1.0743 4.4625,2.6197 6.25,3.4341 1.7875,0.8145 3.25,1.8705 3.25,2.3467 0,0.4762 1.5411,1.6007 3.4247,2.4989 4.3779,2.0877 17.1342,14.1993 24.4742,23.2373 11.1903,13.7791 16.8875,23.4683 24.1076,41 l 2.0592,5 -0.574,-82.5027 c -0.4629,-66.551 -0.3243,-82.8321 0.7172,-84.2065 0.8451,-1.1153 3.0183,-1.8053 6.2911,-1.9974 l 5,-0.2934 0.5,-8 0.5,-8 4.25,-1.4692 4.25,-1.4691 v -16.1584 c 0,-12.7569 0.2996,-16.4071 1.4234,-17.3397 1.711,-1.42 43.247,-1.7931 44.6391,-0.4011 0.4872,0.4872 1.0099,8.3 1.1616,17.3616 l 0.2759,16.4759 4.2453,0.3073 c 4.9083,0.3552 5.1035,0.7702 5.5003,11.6927 l 0.2544,7 3.496,0.3317 c 1.9228,0.1824 4.0603,0.8 4.75,1.3724 0.9833,0.8161 1.254,16.0178 1.254,70.4183 v 69.3776 h 16.941 c 9.3175,0 17.1661,-0.3644 17.4414,-0.8097 0.2752,-0.4454 0.8108,-52.5329 1.1901,-115.75 0.3794,-63.2171 0.7977,-116.2904 0.9297,-117.9404 0.1319,-1.65 0.2979,-11.3973 0.3688,-21.6607 l 0.129,-18.6608 4.3188,-2.0907 4.3188,-2.0907 0.2109,-37.2425 c 0.1572,-27.7727 0.5211,-37.5394 1.4312,-38.4101 0.9737,-0.9316 5.7597,-2.0547 9.8304,-2.3067 0.3355,-0.021 0.8594,-2.4537 1.1642,-5.4065 0.4096,-3.9688 1.2284,-6.043 3.1399,-7.9545 1.4222,-1.4222 2.5858,-3.2862 2.5858,-4.1422 0,-0.856 0.8362,-3.4639 1.8583,-5.7955 1.0221,-2.3315 2.443,-5.5891 3.1574,-7.2391 0.7145,-1.65 1.5658,-7.725 1.8917,-13.5 l 0.5926,-10.5 4.7079,-0.5413 c 2.5894,-0.2977 5.0323,-0.8655 5.4286,-1.2618 0.7049,-0.705 1.0901,-6.9091 3.2717,-52.6969 0.5896,-12.375 1.2787,-23.4 1.5314,-24.5 0.2526,-1.1 0.5397,-9.8219 0.638,-19.38216 0.2074,-20.1672 0.3918,-21.3356 3.3027,-20.9202 1.9504,0.2783 2.1361,0.9813 2.3257,8.8024 0.1134,4.675 0.6973,13.45 1.2977,19.49996 1.0738,10.8212 2.3404,29.4247 4.0169,59 1.7352,30.611 1.9789,31.5 8.6353,31.5 4.5052,0 5.3441,2.0756 5.3441,13.2227 0,8.5956 2.0228,18.1335 4.3364,20.4471 0.365,0.365 0.6636,1.6057 0.6636,2.7571 0,1.1515 1.027,3.214 2.2822,4.5834 2.4229,2.6431 4.7178,9.0738 4.7178,13.2198 0,2.2145 0.5277,2.5704 4.6491,3.1353 2.557,0.3505 5.257,1.1418 6,1.7584 1.0897,0.9044 1.3509,8.2281 1.3509,37.8762 0,39.3747 -0.1581,38.1693 5.182,39.5096 1.4689,0.3687 3.4914,1.5771 4.4944,2.6853 1.7347,1.9168 1.8383,6.8691 2.1254,101.6601 0.1661,54.8048 0.4454,100.0951 0.6207,100.6451 0.1962,0.6152 3.5434,0.8076 8.6982,0.5 l 8.3793,-0.5 0.746,-36 c 0.6418,-30.9743 0.9651,-36.1617 2.3156,-37.1582 2.2948,-1.6933 18.9048,-2.5072 43.9384,-2.1531 l 22,0.3113 0.781,34.5 c 0.4295,18.975 0.9779,35.0625 1.2186,35.75 0.535,1.5282 9.4399,1.6723 14.6091,0.2364 l 3.6087,-1.0024 0.4914,-65.5421 c 0.366,-48.8151 0.7954,-65.8462 1.6827,-66.7335 0.6553,-0.6552 3.7602,-1.4202 6.8999,-1.6999 l 5.7086,-0.5086 0.271,-19.0984 0.2711,-19.0984 10.7289,-0.523 c 5.901,-0.2876 16.321,-0.2433 23.1556,0.098 l 12.4267,0.6214 0.3985,18.4919 c 0.2192,10.1705 0.4845,18.5778 0.5896,18.6829 0.1051,0.105 2.8557,0.4438 6.1125,0.7527 3.2567,0.309 6.2689,1.124 6.6936,1.8112 0.4246,0.6871 0.7897,30.7271 0.8113,66.7554 l 0.039,65.506 -9.8299,7.3156 c -5.4065,4.0235 -10.9225,8.2985 -12.2579,9.5 -1.3354,1.2014 -4.449,3.8217 -6.9191,5.8228 -2.4701,2.001 -5.6161,4.6351 -6.9911,5.8533 -1.375,1.2183 -5.7842,4.9811 -9.7982,8.3617 -4.0141,3.3806 -15.0491,14.0216 -24.5222,23.6466 -25.3957,25.8028 -33.0952,38.1029 -36.7029,58.6335 -2.7611,15.7128 2.2519,31.7905 12.9781,41.6236 7.8087,7.1586 18.4076,11.8951 33.0452,14.7677 35.6543,6.9969 58.056,9.2881 85,8.6936 21.0139,-0.4636 41.2483,0.4798 51,2.3779 30.2904,5.8956 41.03,16.1344 53.554,51.0569 1.4491,4.0407 2.8548,8.2468 3.12371,9.3468 0.269,1.1 0.8392,2.9 1.2671,4 0.4279,1.1 1.3421,3.8 2.0316,6 0.6895,2.2 1.8373,5.35 2.5507,7 5.1958,12.0183 5.6729,14.5792 4.5635,24.4938 -0.585,5.2284 -1.3299,25.9312 -1.6553,46.0062 -0.3464,21.3736 -0.9937,36.9144 -1.5619,37.5 -1.7632,1.8171 -45.24551,1.8565 -60.10621,0.054 -29.6225,-3.5922 -46.6542,-6.8679 -68.2672,-13.1298 -19.5445,-5.6625 -25.4365,-7.966 -46.5,-18.1791 -7.425,-3.6001 -14.625,-7.3153 -16,-8.256 -1.375,-0.9407 -4.975,-3.0283 -8,-4.6391 -3.025,-1.6108 -8.2,-4.6721 -11.5,-6.8027 -11.8409,-7.6453 -24.0092,-15.8217 -24.5,-16.4628 -0.275,-0.3591 -3.467,-2.7477 -7.0935,-5.3078 -5.8238,-4.1114 -10.46,-6.5634 -21.4065,-11.3213 -5.0221,-2.1828 -24.656,-8.1697 -30.5,-9.3002 -3.025,-0.5851 -8.425,-1.647 -12,-2.3598 -10.5855,-2.1103 -56.149,-1.7084 -67.5,0.5954 -4.95,1.0047 -10.8,2.1739 -13,2.5982 -2.2,0.4244 -5.35,1.2229 -7,1.7744 -1.65,0.5516 -5.025,1.5626 -7.5,2.2468 -5.8806,1.6256 -18.0264,5.8578 -20.2364,7.0515 -0.9551,0.5159 -2.1994,0.9379 -2.7652,0.9379 -1.2788,0 -25.7121,11.8673 -32.4984,15.7846 -20.441,11.7992 -39.3659,25.144 -60.3606,42.563 l -8.3606,6.9367 0.3953,9.8426 c 0.2175,5.4134 0.8605,10.3077 1.429,10.8762 0.7067,0.7067 5.7568,0.725 15.9653,0.058 13.4277,-0.8775 17.2146,-1.5318 23.9316,-4.1351 1.1,-0.4263 3.125,-0.9969 4.5,-1.2679 1.375,-0.271 4.975,-1.2406 8,-2.1548 5.7125,-1.7263 7.803,-2.2613 19.5,-4.9912 11.1561,-2.6036 17.026,-3.422 33,-4.6013 16.0417,-1.1843 52.5551,-0.553 59.7446,1.0329 21.2326,4.6835 20.623,4.531 34.2554,8.571 4.95,1.4669 9.7814,3.0763 10.7364,3.5763 0.9551,0.5001 2.4023,0.9092 3.2161,0.9092 0.8138,0 3.1824,0.7374 5.2636,1.6386 2.0811,0.9012 4.6839,1.992 5.7839,2.4239 23.8348,9.3588 28.0472,11.2268 55,24.3894 11.55,5.6405 22.575,10.8241 24.5,11.519 3.202,1.156 7.2905,2.7968 12.5,5.0165 7.707,3.284 29.6343,10.3716 43.5,14.0607 2.475,0.6585 6.525,1.7619 9,2.4519 9.722,2.7105 27.1089,7.0029 34.5,8.5172 2.2,0.4507 7.15,1.5759 11,2.5004 3.85,0.9245 8.8,2.0617 11,2.527 10.1505,2.147 12.1621,2.6902 14.5,3.9158 3.6626,1.92 3.6612,1.9078 0.5515,4.5799 l -2.8626,2.4599 h -299.1445 c -231.3345,0 -299.4164,-0.272 -300.3444,-1.2 z m 162.213,-155.8408 c 4.8505,-9.5466 11.9755,-20.8067 15.7933,-24.9592 1.2642,-1.375 3.5833,-4.075 5.1536,-6 1.5703,-1.925 8.8017,-9.8 16.0698,-17.5 15.4275,-16.3443 27.5602,-30.5542 33.2989,-39 4.148,-6.1048 14.4726,-25.3624 15.5477,-29 0.3251,-1.1 1.3406,-4.025 2.2567,-6.5 3.4294,-9.2656 7.3676,-24.8524 9.475,-37.5 0.5498,-3.3 1.2741,-7.4625 1.6094,-9.25 0.7464,-3.9796 -0.2836,-4.1171 -5.6174,-0.75 -2.1782,1.375 -4.2262,2.5 -4.5512,2.5 -1.1299,0 -19.9861,12.8003 -25.9488,17.6151 -19.3461,15.6214 -34.7802,34.358 -44.3872,53.8849 -5.1856,10.5401 -6.8836,14.4065 -10.1011,23 -2.517,6.7229 -6.0117,18.7986 -6.0117,20.7733 0,1.2797 -0.4039,2.7542 -0.8976,3.2767 -0.4937,0.5225 -1.1213,2.75 -1.3948,4.95 -0.2734,2.2 -1.2326,7.6 -2.1315,12 -2.5655,12.5579 -5.6922,50.3618 -3.6586,44.2343 0.5048,-1.5211 2.9778,-6.8199 5.4955,-11.7751 z m 613.83691,155.9584 c -3.0876,-3.2546 -1.1065,-4.894 8.25,-6.8271 3.3,-0.6818 7.575,-1.6204 9.5,-2.0857 1.925,-0.4654 7.1,-1.6098 11.5,-2.5433 4.4,-0.9335 9.0337,-2.0942 10.2971,-2.5794 1.2633,-0.4851 3.2564,-0.8821 4.429,-0.8821 1.1725,0 3.5139,-0.4353 5.2029,-0.9674 3.8917,-1.2259 12.6025,-3.5415 19.071,-5.0697 2.75,-0.6497 6.8,-1.7606 9,-2.4687 2.2,-0.7081 6.025,-1.848 8.5,-2.5332 7.8893,-2.1842 26.2931,-8.1442 32.5,-10.525 13.0667,-5.0121 26.3014,-10.4237 30.0523,-12.2881 2.1712,-1.0793 8.6727,-4.3355 14.4477,-7.236 5.775,-2.9005 15,-7.4808 20.5,-10.1784 5.5,-2.6975 11.73,-5.7661 13.8445,-6.8191 2.1145,-1.0529 4.2347,-1.9144 4.7117,-1.9144 0.477,0 5.2097,-2.029 10.5171,-4.509 5.3074,-2.4799 10.7289,-4.7797 12.0477,-5.1107 1.3189,-0.331 2.6452,-1.002 2.9475,-1.4911 0.3022,-0.4891 1.1857,-0.8892 1.9632,-0.8892 0.7775,0 3.7884,-1.0815 6.691,-2.4034 2.9025,-1.3219 8.6523,-3.6251 12.7773,-5.1183 4.125,-1.4933 8.4,-3.0778 9.5,-3.5213 1.1,-0.4435 3.125,-1.0384 4.5,-1.3219 1.375,-0.2836 6.1,-1.3817 10.5,-2.4403 15.0705,-3.6259 24.0714,-4.4003 45,-3.872 22.1334,0.5588 28.5153,1.2462 42.5,4.5778 18.8425,4.4889 30.6583,8.2911 48.5,15.6069 7.7,3.1573 15.35,6.2922 17,6.9665 1.65,0.6743 4.575,1.7889 6.5,2.4769 1.925,0.688 4.4,1.6017 5.5,2.0303 1.1,0.4287 4.025,1.5621 6.5,2.5188 2.475,0.9567 5.4,2.0995 6.5,2.5395 1.1,0.4401 5.375,1.9932 9.5,3.4515 4.125,1.4582 8.5337,3.0693 9.7971,3.5802 1.2633,0.5108 2.7258,0.9288 3.25,0.9288 1.3286,0 1.2102,-23.089 -0.187,-36.4653 -1.1078,-10.6057 -1.7131,-12.4893 -6.9208,-21.5347 -2.3182,-4.0267 -12.5816,-13.3666 -21.3309,-19.4117 -13.3378,-9.2153 -20.8444,-14.1274 -25.7588,-16.8557 -2.5578,-1.42 -6.3828,-3.6558 -8.5,-4.9685 -3.4901,-2.1638 -37.0501,-18.81 -41.8496,-20.7579 -1.1,-0.4464 -5.15,-2.033 -9,-3.5258 -3.85,-1.4927 -7.9,-3.0638 -9,-3.4914 -8.6635,-3.3676 -23.4479,-7.2607 -37.5,-9.8745 -15.1802,-2.8237 -47.1977,-2.1062 -61,1.3668 -3.575,0.8996 -7.9667,1.884 -9.7593,2.1876 -1.7926,0.3037 -3.5066,0.9524 -3.809,1.4416 -0.3023,0.4892 -1.5582,0.8895 -2.7907,0.8895 -1.2326,0 -2.6685,0.3756 -3.191,0.8347 -0.5225,0.4591 -3.2,1.6314 -5.95,2.6052 -7.7834,2.756 -36.025,16.8955 -44.1862,22.1224 -1.2024,0.7701 -3.6774,2.2351 -5.5,3.2556 -7.4761,4.1859 -14.6999,8.1597 -21.3138,11.7246 -3.85,2.0752 -8.575,4.6602 -10.5,5.7445 -7.4112,4.1743 -18.7522,10.1754 -24.5,12.9641 -17.709,8.5923 -23.7866,11.2172 -46.75,20.1915 -6.6895,2.6143 -24.354,8.4772 -31.75,10.5379 -2.475,0.6896 -6.525,1.845 -9,2.5676 -7.6577,2.2357 -19.8659,5.0268 -32.5,7.4304 -3.3,0.6278 -8.3771,1.6398 -11.2825,2.249 -6.898,1.4462 -8.3182,0.3039 -5.9075,-4.7514 0.9295,-1.9492 1.69,-4.5092 1.69,-5.689 0,-1.1798 0.4412,-3.5271 0.9804,-5.2161 1.0213,-3.199 5.3948,-21.7658 6.9656,-29.571 0.4981,-2.475 1.587,-7.875 2.4199,-12 3.6745,-18.2001 6.6182,-48.0579 6.6284,-67.2314 0,-5.9023 0.4823,-14.0023 1.0649,-18 1.0863,-7.4542 5.3936,-27.2987 6.8956,-31.7686 0.462,-1.375 1.606,-5.2 2.5423,-8.5 2.5254,-8.901 3.22,-11.2211 5.9868,-20 2.8058,-8.9024 3.1966,-10.1756 7.0593,-23 1.4909,-4.95 3.7108,-12.15 4.9331,-16 1.2223,-3.85 2.7984,-9.025 3.5026,-11.5 0.7041,-2.475 1.8935,-6.3 2.643,-8.5 0.7495,-2.2 2.0672,-6.7 2.9281,-10 0.861,-3.3 2.4394,-9.3345 3.5077,-13.41 1.0683,-4.0754 1.9423,-8.6208 1.9423,-10.1007 0,-1.48 0.4139,-3.9955 0.9199,-5.5901 0.5059,-1.5945 1.1721,-8.5242 1.4804,-15.3992 0.3084,-6.875 0.8626,-19.3405 1.2317,-27.7012 0.4222,-9.5642 1.0784,-15.3457 1.7696,-15.5909 0.6041,-0.2143 8.0358,-0.011 16.5149,0.4513 8.4791,0.4626 15.594,0.6636 15.8109,0.4468 0.2168,-0.2169 0.3545,-31.2224 0.3058,-68.9011 -0.079,-61.5225 0.075,-68.6698 1.5106,-70.1059 1.2107,-1.2107 3.632,-1.5991 9.9686,-1.5991 5.6126,0 8.6267,-0.4117 9.1502,-1.25 0.7807,-1.2499 0.9637,-3.9023 1.2074,-17.5 l 0.13,-7.25 h 27.9683 27.9682 l 0.2818,11.7347 0.2817,11.7346 4,0.8027 c 2.2,0.4415 6.353,1.0658 9.2289,1.3874 2.8759,0.3217 5.6834,1.1325 6.2389,1.8018 0.635,0.7652 1.1069,16.7505 1.2711,43.0562 l 0.2611,41.8392 3,0.9278 c 1.65,0.5103 5.25,1.3069 8,1.7701 14.4413,2.4325 18.1194,3.241 19.3561,4.2548 1.1078,0.9083 1.2352,5.6044 0.6955,25.6513 -0.3634,13.4967 -0.9095,25.8346 -1.2137,27.4175 l -0.553,2.8779 5.8575,-0.5825 c 3.2217,-0.3204 7.6576,-0.948 9.8576,-1.3946 l 4,-0.8121 0.6257,-137.9833 c 0.3441,-75.8909 0.9728,-140.9085 1.3971,-144.4835 0.4243,-3.575 1.2678,-6.8306 1.8744,-7.2346 0.6065,-0.4041 4.5817,-0.7416 8.8337,-0.75 9.1695,-0.018 8.6552,0.8662 9.0225,-15.5154 l 0.2466,-11 6,-0.6385 c 13.9521,-1.4847 49.4584,-1.637 56.7657,-0.2435 3.9789,0.7588 8.681,1.3802 10.4491,1.3809 4.686,0 5.401,2.2054 5.2815,16.2789 -0.057,6.7222 -0.08,12.7847 -0.05,13.4722 0.037,0.8697 2.1077,1.2547 6.8038,1.2654 3.7125,0.01 7.3558,0.3992 8.0963,0.8685 3.2545,2.0626 3.9219,31.3068 4.7832,209.6162 0.3241,67.1 0.7916,122.3375 1.0389,122.75 0.2473,0.4125 3.3481,0.75 6.8906,0.75 h 6.4409 v -5.4182 c 0,-8.82 -0.3499,-8.5818 12.607,-8.5818 h 11.393 l 0.015,-57.75 c 0.01,-31.7625 0.3546,-58.2836 0.7693,-58.9358 0.4148,-0.6522 2.9954,-1.3272 5.7347,-1.5 l 4.9807,-0.3142 0.1032,-3.7591 c 0.057,-2.0674 0.8443,-4.5779 1.75,-5.5787 1.2436,-1.3741 1.6468,-3.8017 1.6468,-9.914 0,-7.5746 0.1839,-8.2782 2.8635,-10.9578 1.5749,-1.575 4.6984,-3.691 6.9411,-4.7023 2.2427,-1.0112 4.3413,-2.5259 4.6636,-3.3658 0.6649,-1.7328 3.4028,-23.3173 4.2385,-33.4154 0.5557,-6.715 1.6686,-8.4288 4.384,-6.7513 0.9841,0.6079 1.6142,3.9741 2.0886,11.1575 0.927,14.0377 2.3925,25.7785 3.5958,28.8082 0.5508,1.3866 2.2892,3.1651 3.8632,3.9522 5.7493,2.875 8.3617,6.1083 8.3617,10.3489 0,2.9229 0.6468,4.5477 2.4904,6.2563 1.4723,1.3645 2.2508,2.9322 1.9043,3.8352 -0.3224,0.84 0.357,2.7262 1.5096,4.1916 1.1846,1.506 2.0957,4.1272 2.0957,6.0294 0,3.2416 0.1423,3.3651 3.8776,3.3651 2.3853,0 4.4057,0.6359 5.25,1.6525 1.4735,1.7741 2.5459,46.3475 2.7661,114.9751 0.081,25.1985 0.4055,33.3661 1.3563,34.1243 1.2679,1.0111 6.1973,2.1787 10.75,2.5462 l 2.5,0.2019 0.1812,-29.8984 c 0.1321,-21.7995 0.5022,-30.0969 1.3664,-30.631 1.6792,-1.0378 48.706,-2.3297 54.7158,-1.5031 5.6664,0.7793 7.6308,3.3117 6.5932,8.4997 -0.3523,1.7615 0.066,4.6316 1.0239,7.0257 1.3457,3.3633 1.6195,8.3936 1.6195,29.7556 v 25.708 l -15.299,15.0217 c -13.0996,12.8622 -15.7802,16.0281 -18.6454,22.0218 -1.8405,3.85 -3.7175,7.7599 -4.1711,8.6887 -1.4799,3.0298 -4.9576,17.1104 -6.4986,26.3113 -3.0655,18.304 -2.8531,62.8194 0.3913,82 0.6569,3.8836 0.696,3.8109 1.3455,-2.5 0.3679,-3.575 1.4415,-12.575 2.3857,-20 0.9442,-7.425 2.0836,-16.65 2.5319,-20.5 1.1647,-10.0017 2.5613,-18.3593 3.9309,-23.5237 0.6529,-2.462 1.6326,-6.2763 2.177,-8.4763 1.2447,-5.0296 3.7664,-13.3731 4.8358,-16 0.4478,-1.1 1.3856,-3.575 2.084,-5.5 3.877,-10.6854 10.9797,-23.9009 17.5491,-32.6525 1.7144,-2.2839 3.3989,-5.2089 3.7432,-6.5 0.3443,-1.2911 2.4659,-3.6975 4.7146,-5.3475 2.2487,-1.65 5.7393,-5.0131 7.7568,-7.4735 2.0176,-2.4604 5.8521,-6.5104 8.5211,-9 2.6691,-2.4896 6.9032,-6.439 9.4091,-8.7765 2.5059,-2.3375 5.1812,-4.25 5.9449,-4.25 0.7638,0 2.4922,-1.1907 3.8409,-2.646 1.3488,-1.4553 2.4523,-2.3553 2.4523,-2 0,0.3553 0.8886,-0.2426 1.9746,-1.3286 1.086,-1.086 3.111,-2.2598 4.5,-2.6084 1.389,-0.3486 2.5254,-1.035 2.5254,-1.5254 0,-0.4904 1.0699,-0.8916 2.3776,-0.8916 1.3076,0 2.9377,-0.675 3.6224,-1.5 1.7764,-2.1404 3.307,-1.8672 6.0757,1.0847 l 2.4243,2.5848 -0.2347,21.4762 c -0.1617,14.785 -0.6835,23.1945 -1.6749,26.991 -0.792,3.0331 -1.1914,7.047 -0.8875,8.9197 0.3518,2.168 0.011,4.2316 -0.9388,5.6809 -0.8203,1.2519 -1.4914,4.1078 -1.4914,6.3465 0,2.2387 -0.7465,5.2097 -1.659,6.6024 -0.9125,1.3926 -1.3693,3.2872 -1.0151,4.2101 0.3738,0.9743 -0.087,2.4859 -1.0986,3.6037 -0.9584,1.059 -1.4939,2.5735 -1.19,3.3656 0.304,0.792 -0.077,2.2712 -0.8469,3.2872 -0.7697,1.016 -1.4138,2.6408 -1.4313,3.6108 -0.017,0.9699 -0.444,2.5449 -0.9477,3.5 -0.5038,0.955 -1.6657,3.3114 -2.5822,5.2364 -3.1707,6.6605 -4.6151,9 -5.5565,9 -0.52,0 -0.9454,0.9 -0.9454,2 0,1.1 -0.3383,2 -0.7517,2 -0.4135,0 -1.8391,2.0496 -3.168,4.5547 -1.329,2.5051 -3.2407,4.996 -4.2483,5.5352 -1.0076,0.5393 -1.832,1.6984 -1.832,2.576 0,0.8775 -8.9041,10.4242 -19.7869,21.2148 -10.8828,10.7906 -21.015,21.6443 -22.5159,24.1193 -4.7611,7.8509 -5.1807,8.4878 -5.9826,9.0809 -1.2446,0.9205 -4.6505,7.6498 -4.1335,8.1668 0.257,0.257 -0.2186,1.0365 -1.0569,1.7322 -0.8383,0.6958 -1.5242,2.0199 -1.5242,2.9425 0,0.9227 -0.3837,2.1051 -0.8526,2.6276 -0.4689,0.5225 -1.425,3.0789 -2.1246,5.681 -0.6997,2.602 -1.8642,5.2224 -2.588,5.8231 -0.7238,0.6007 -1.083,1.6991 -0.7984,2.4409 0.2847,0.7418 -0.049,2.3964 -0.7404,3.6769 -0.692,1.2804 -1.4056,3.6368 -1.5859,5.2364 -0.1804,1.5995 -0.8864,3.5812 -1.5689,4.4036 -0.6826,0.8224 -1.0955,2.3547 -0.9176,3.405 0.178,1.0503 -0.3722,2.9714 -1.2225,4.2691 -0.8503,1.2978 -1.4896,3.8587 -1.4208,5.691 0.069,1.8323 -0.6136,4.7602 -1.5166,6.5065 -1.0477,2.0259 -1.4205,4.2824 -1.0302,6.2341 0.4036,2.0181 0.06,3.9017 -1.0108,5.5355 -1.9851,3.0296 -2.0963,5.5469 -0.2451,5.5469 1.4086,0 3.5844,-2.0373 3.2874,-3.0782 -0.2747,-0.9628 3.7332,-7.9218 4.5624,-7.9218 0.4249,0 0.7726,-0.9 0.7726,-2 0,-1.1 0.444,-2 0.9866,-2 0.5426,0 1.6647,-1.4625 2.4936,-3.25 2.4725,-5.3321 6.1955,-11.1419 7.3964,-11.5422 0.6179,-0.206 1.1234,-0.9309 1.1234,-1.611 0,-0.6801 1.35,-2.7487 3,-4.5968 1.65,-1.8481 3,-3.8003 3,-4.3383 0,-1.5083 24.8626,-25.6617 26.4152,-25.6617 0.754,0 1.6026,-0.6041 1.886,-1.3425 0.2833,-0.7383 2.019,-2.1008 3.857,-3.0276 3.6805,-1.856 7.0677,-3.8558 7.8418,-4.6299 0.275,-0.275 2.3,-1.3374 4.5,-2.3609 2.2,-1.0234 4.8058,-2.2762 5.7907,-2.7838 0.9848,-0.5077 2.1643,-0.6922 2.6209,-0.4099 0.4566,0.2822 1.8248,-0.3495 3.0403,-1.4037 1.2155,-1.0542 2.8123,-1.6857 3.5483,-1.4032 0.736,0.2824 2.4362,-0.2059 3.7781,-1.0852 1.3419,-0.8793 3.1377,-1.3309 3.9905,-1.0036 0.8529,0.3272 2.919,-0.1126 4.5913,-0.9773 1.6723,-0.8648 5.0586,-1.5724 7.5251,-1.5724 2.4665,0 5.7514,-0.4918 7.2997,-1.0929 1.5483,-0.601 7.4076,-1.2838 13.0207,-1.5173 9.4763,-0.3941 10.2834,-0.2788 11.2962,1.6136 1.4944,2.7922 -0.6882,13.7477 -3.1606,15.8646 -1.0126,0.8671 -1.8412,2.3499 -1.8412,3.2952 0,0.9453 -0.45,1.9969 -1,2.3368 -0.55,0.3399 -1,1.4433 -1,2.452 0,1.0087 -0.6171,2.0708 -1.3713,2.3602 -0.7542,0.2895 -1.658,1.6685 -2.0084,3.0646 -0.3504,1.396 -1.7583,3.7481 -3.1287,5.2268 -1.3704,1.4786 -2.4916,3.1307 -2.4916,3.6713 0,1.969 -20.1589,22.2615 -26.3761,26.5509 -2.1319,1.4708 -5.2819,3.5605 -7,4.6438 -1.7181,1.0833 -3.9963,2.7708 -5.0625,3.75 -1.0662,0.9792 -2.7678,1.7804 -3.7813,1.7804 -1.0136,0 -2.1019,0.675 -2.4185,1.5 -0.3166,0.825 -1.4274,1.5 -2.4686,1.5 -1.0411,0 -1.893,0.45 -1.893,1 0,0.55 -0.8449,1 -1.8776,1 -1.0326,0 -2.4336,0.67 -3.1133,1.489 -0.6796,0.8189 -1.6544,1.2302 -2.1662,0.9139 -0.5118,-0.3163 -1.6312,0.01 -2.4876,0.7172 -0.8564,0.7107 -2.2261,1.3904 -3.0439,1.5105 -0.8177,0.12 -2.2703,0.9272 -3.2279,1.7938 -0.9575,0.8666 -2.718,1.5756 -3.9122,1.5756 -1.1942,0 -2.1713,0.5025 -2.1713,1.1166 0,0.6248 -0.8821,0.886 -2.0024,0.593 -1.139,-0.2978 -2.335,0.071 -2.7739,0.8552 -0.4244,0.7583 -1.6608,1.517 -2.7477,1.6859 -1.0868,0.1689 -2.5997,0.696 -3.362,1.1713 -0.7623,0.4753 -2.1123,0.9509 -3,1.0569 -2.8514,0.3405 -8.114,2.6877 -8.114,3.6189 0,0.4962 -0.9,0.9022 -2,0.9022 -1.1,0 -2,0.4645 -2,1.0322 0,0.5677 -0.7875,1.3583 -1.75,1.7568 -3.9631,1.6409 -12.9974,8.247 -16.5403,12.0946 -2.0847,2.264 -4.1318,4.1164 -4.5491,4.1164 -0.4174,0 -1.3284,1.575 -2.0244,3.5 -0.6961,1.925 -1.6865,3.5 -2.2009,3.5 -0.5144,0 -0.9353,0.8734 -0.9353,1.941 0,1.0675 -0.45,2.2191 -1,2.559 -0.55,0.3399 -1,1.6163 -1,2.8365 0,1.2202 -0.7202,3.2466 -1.6003,4.5033 -0.8802,1.2566 -1.361,3.2003 -1.0684,4.3192 0.2926,1.119 -0.1695,4.2068 -1.0271,6.8619 -2.2084,6.8382 -1.3241,9.1616 4.4866,11.7877 2.6668,1.2053 6.0283,2.1914 7.4699,2.1914 1.4417,0 2.8994,0.45 3.2393,1 0.3399,0.55 2.1114,1 3.9366,1 1.8252,0 3.8402,0.6285 4.4777,1.3968 0.6376,0.7682 2.0419,1.1659 3.1207,0.8838 1.0788,-0.2821 3.0714,0.2143 4.428,1.1032 1.3567,0.8889 3.5524,1.6162 4.8794,1.6162 1.327,0 2.9989,0.7063 3.7153,1.5695 0.7164,0.8633 2.1006,1.3609 3.076,1.1058 0.9753,-0.2551 2.5818,0.1493 3.5698,0.8987 0.9881,0.7493 2.7824,1.3767 3.9875,1.3942 1.205,0.017 2.4691,0.4818 2.809,1.0318 0.3399,0.55 1.6265,1 2.859,1 1.2326,0 2.7749,0.5339 3.4274,1.1864 0.6526,0.6526 2.1815,1.3383 3.3977,1.5239 1.2162,0.1856 2.9452,1.0017 3.8423,1.8136 0.8971,0.8119 2.3566,1.4761 3.2433,1.4761 0.8868,0 1.9093,0.4807 2.2724,1.0682 0.3631,0.5875 1.2568,0.8392 1.9859,0.5594 0.7292,-0.2798 1.8416,0.1128 2.472,0.8724 0.6304,0.7596 1.7162,1.1624 2.4129,0.8951 0.6967,-0.2674 1.8439,0.2094 2.5493,1.0594 0.7055,0.85 1.8788,1.5455 2.6073,1.5455 0.7286,0 3.4405,1.125 6.0265,2.5 2.586,1.375 5.2617,2.5 5.946,2.5 0.6842,0 1.503,0.675 1.8196,1.5 0.3166,0.825 1.7148,1.5 3.107,1.5 1.3923,0 2.5314,0.45 2.5314,1 0,0.55 0.6059,1 1.3464,1 2.0049,0 7.6536,3.0062 7.6536,4.0732 0,0.5098 0.8449,0.9268 1.8776,0.9268 1.0326,0 2.4377,0.675 3.1224,1.5 0.6847,0.825 2.0209,1.5 2.9694,1.5 0.9485,0 2.7623,0.9 4.0306,2 1.2683,1.1 2.8597,2 3.5364,2 1.4781,0 2.6615,5.137 1.4673,6.3693 -0.4769,0.4922 -10.9658,0.3204 -24.173,-0.3958 -31.9246,-1.7311 -218.0367,-2.2501 -344.3307,-0.9601 -212.976,2.1754 -254.9037,2.3233 -256.25,0.9042 z m 482.6184,-157.4176 c -0.3482,-9.9 -1.1637,-21.15 -1.8121,-25 -3.7913,-22.5091 -6.6825,-33.8493 -11.4177,-44.7839 -0.9012,-2.0812 -1.6386,-4.4062 -1.6386,-5.1667 0,-0.7605 -0.3375,-1.5327 -0.75,-1.7161 -0.4125,-0.1833 -2.7739,-4.3055 -5.2476,-9.1605 -2.4736,-4.8549 -5.2861,-9.6736 -6.25,-10.7081 -0.9638,-1.0346 -1.7596,-2.2374 -1.7684,-2.6729 -0.01,-0.4355 -1.2463,-2.2035 -2.75,-3.929 -1.5037,-1.7254 -4.759,-5.5385 -7.234,-8.4736 -2.475,-2.9351 -8.9806,-9.7589 -14.457,-15.1642 l -9.957,-9.8277 -1.686,2.2352 c -2.7113,3.5945 -3.2972,9.101 -3.3376,31.3675 -0.042,22.8225 0.3658,26.7073 4.1408,39.5 2.5908,8.7796 2.8237,9.4531 5.8793,17 1.9495,4.8149 8.0927,15.1199 9.587,16.0816 0.4971,0.3199 1.8997,1.9671 3.1171,3.6605 3.1893,4.4362 14.9585,19.6671 15.6538,20.2579 0.3235,0.275 4.0381,4.7811 8.2545,10.0135 8.1325,10.0921 12.8673,17.4164 18.0921,27.9865 l 3.213,6.5 0.5007,-10 c 0.2755,-5.5 0.2159,-18.1 -0.1323,-28 z"
       id="path1" />
  </g>
</svg>
